<svg width="20" height="20" viewBox="0 0 20 20" fill="none" xmlns="http://www.w3.org/2000/svg">
<path d="M19.0969 7.41939C19.0392 7.24958 18.9331 7.10037 18.7916 6.99018C18.6501 6.87999 18.4795 6.81365 18.3007 6.79934L13.0716 6.38383L10.8087 1.37482C10.7367 1.21349 10.6195 1.07646 10.4712 0.980278C10.323 0.884093 10.1501 0.832861 9.97344 0.832764C9.79675 0.832667 9.6238 0.883709 9.47548 0.979732C9.32715 1.07575 9.20979 1.21265 9.13755 1.3739L6.87473 6.38383L1.64558 6.79934C1.46989 6.81326 1.30193 6.8775 1.16179 6.98438C1.02165 7.09125 0.91527 7.23624 0.855374 7.40199C0.795479 7.56774 0.784605 7.74724 0.824053 7.91901C0.8635 8.09078 0.951599 8.24755 1.07781 8.37056L4.94212 12.1376L3.57544 18.0556C3.53394 18.2348 3.54724 18.4222 3.61361 18.5937C3.67999 18.7652 3.79637 18.9128 3.94765 19.0173C4.09894 19.1218 4.27815 19.1785 4.46202 19.1799C4.6459 19.1813 4.82595 19.1274 4.97881 19.0252L9.97315 15.6956L14.9675 19.0252C15.1237 19.1289 15.308 19.1823 15.4955 19.1782C15.683 19.1741 15.8647 19.1126 16.0162 19.0022C16.1678 18.8917 16.2819 18.7374 16.3431 18.5602C16.4044 18.3829 16.4099 18.1912 16.3589 18.0107L14.6813 12.1404L18.8419 8.39625C19.1143 8.15043 19.2143 7.76702 19.0969 7.41939Z" fill="#F3CD03"/>
</svg>
