<svg width="25" height="20" viewBox="0 0 25 20" fill="none" xmlns="http://www.w3.org/2000/svg">
<path fill-rule="evenodd" clip-rule="evenodd" d="M23.458 19.3333C23.458 19.3333 24.9997 19.3333 24.9997 17.7777C24.9997 16.2222 23.458 11.5555 17.2913 11.5555C11.1247 11.5555 9.58301 16.2222 9.58301 17.7777C9.58301 19.3333 11.1247 19.3333 11.1247 19.3333H23.458ZM11.1586 17.7777H23.4241C23.4313 17.7769 23.4385 17.7759 23.4457 17.7746L23.458 17.7715C23.4549 17.3608 23.2005 16.1693 22.2863 15.096C21.4353 14.0895 19.9399 13.1111 17.2913 13.1111C14.6443 13.1111 13.1489 14.0911 12.2963 15.096C11.3821 16.1693 11.1262 17.3624 11.1247 17.7715C11.136 17.7737 11.1473 17.7758 11.1586 17.7777ZM17.2913 8.4444C18.1091 8.4444 18.8933 8.11663 19.4716 7.53318C20.0498 6.94973 20.3747 6.15841 20.3747 5.33329C20.3747 4.50817 20.0498 3.71685 19.4716 3.1334C18.8933 2.54996 18.1091 2.22218 17.2913 2.22218C16.4736 2.22218 15.6893 2.54996 15.1111 3.1334C14.5329 3.71685 14.208 4.50817 14.208 5.33329C14.208 6.15841 14.5329 6.94973 15.1111 7.53318C15.6893 8.11663 16.4736 8.4444 17.2913 8.4444ZM21.9163 5.33329C21.9163 5.94613 21.7967 6.55296 21.5643 7.11915C21.3319 7.68533 20.9912 8.19978 20.5617 8.63312C20.1322 9.06646 19.6224 9.41021 19.0613 9.64473C18.5001 9.87925 17.8987 9.99996 17.2913 9.99996C16.684 9.99996 16.0826 9.87925 15.5214 9.64473C14.9603 9.41021 14.4504 9.06646 14.021 8.63312C13.5915 8.19978 13.2508 7.68533 13.0184 7.11915C12.786 6.55296 12.6663 5.94613 12.6663 5.33329C12.6663 4.09562 13.1536 2.90863 14.021 2.03346C14.8883 1.15829 16.0647 0.666626 17.2913 0.666626C18.518 0.666626 19.6944 1.15829 20.5617 2.03346C21.4291 2.90863 21.9163 4.09562 21.9163 5.33329ZM11.026 11.9911C10.4093 11.7951 9.77361 11.6663 9.12976 11.6068C8.76798 11.5721 8.40475 11.555 8.04134 11.5555C1.87467 11.5555 0.333008 16.2222 0.333008 17.7777C0.333008 18.8153 0.846383 19.3333 1.87467 19.3333H8.37434C8.1458 18.8477 8.03182 18.3152 8.04134 17.7777C8.04134 16.2066 8.62255 14.6013 9.72176 13.2604C10.0964 12.8031 10.5327 12.3753 11.026 11.9911ZM7.91801 13.1111C5.34651 13.1422 3.88655 14.1066 3.04634 15.096C2.12597 16.1755 1.87467 17.3717 1.87467 17.7777H6.49967C6.49967 16.1522 6.99763 14.5328 7.91801 13.1111ZM2.64551 6.11107C2.64551 4.87339 3.13278 3.68641 4.00014 2.81124C4.86749 1.93607 6.04388 1.4444 7.27051 1.4444C8.49713 1.4444 9.67352 1.93607 10.5409 2.81124C11.4082 3.68641 11.8955 4.87339 11.8955 6.11107C11.8955 7.34875 11.4082 8.53573 10.5409 9.4109C9.67352 10.2861 8.49713 10.7777 7.27051 10.7777C6.04388 10.7777 4.86749 10.2861 4.00014 9.4109C3.13278 8.53573 2.64551 7.34875 2.64551 6.11107ZM7.27051 2.99996C6.45276 2.99996 5.6685 3.32774 5.09026 3.91118C4.51202 4.49463 4.18717 5.28595 4.18717 6.11107C4.18717 6.93619 4.51202 7.72751 5.09026 8.31096C5.6685 8.8944 6.45276 9.22218 7.27051 9.22218C8.08826 9.22218 8.87252 8.8944 9.45075 8.31096C10.029 7.72751 10.3538 6.93619 10.3538 6.11107C10.3538 5.28595 10.029 4.49463 9.45075 3.91118C8.87252 3.32774 8.08826 2.99996 7.27051 2.99996Z" fill="#23A6F0"/>
</svg>
